<?xml version="1.0" standalone="no"?><!DOCTYPE svg PUBLIC "-//W3C//DTD SVG 1.1//EN" "http://www.w3.org/Graphics/SVG/1.1/DTD/svg11.dtd"><svg t="1506007895851" class="icon" style="" viewBox="0 0 1024 1024" version="1.1" xmlns="http://www.w3.org/2000/svg" p-id="2814" id="mx_n_1506007895852" xmlns:xlink="http://www.w3.org/1999/xlink" width="200" height="200"><defs><style type="text/css"></style></defs><path d="M647.876923 592.738462C732.553846 545.476923 787.692308 456.861538 787.692308 354.461538c0-151.630769-124.061538-275.692308-275.692308-275.692308s-275.692308 124.061538-275.692308 275.692308c0 102.4 55.138462 191.015385 137.846154 238.276923C220.553846 643.938462 106.338462 779.815385 82.707692 945.230769l39.384615 0c25.6-163.446154 149.661538-293.415385 311.138462-326.892308 25.6 7.876923 51.2 11.815385 78.769231 11.815385s53.169231-3.938462 78.769231-11.815385c161.476923 33.476923 285.538462 163.446154 311.138462 326.892308l39.384615 0C917.661538 779.815385 803.446154 643.938462 647.876923 592.738462zM275.692308 354.461538c0-129.969231 106.338462-236.307692 236.307692-236.307692s236.307692 106.338462 236.307692 236.307692c0 129.969231-106.338462 236.307692-236.307692 236.307692S275.692308 484.430769 275.692308 354.461538z" p-id="2815"></path></svg>