<?xml version="1.0" standalone="no"?><!DOCTYPE svg PUBLIC "-//W3C//DTD SVG 1.1//EN" "http://www.w3.org/Graphics/SVG/1.1/DTD/svg11.dtd"><svg t="1508340370766" class="icon" style="" viewBox="0 0 1024 1024" version="1.1" xmlns="http://www.w3.org/2000/svg" p-id="13185" xmlns:xlink="http://www.w3.org/1999/xlink" width="128" height="128"><defs><style type="text/css"></style></defs><path d="M512 1021.107345a509.107345 509.107345 0 1 1 509.107345-509.107345 509.107345 509.107345 0 0 1-509.107345 509.107345z m0-46.282486a462.824859 462.824859 0 1 0-462.824859-462.824859 463.345537 463.345537 0 0 0 462.824859 462.824859" fill="#8a8a8a" p-id="13186"></path><path d="M338.440678 419.435028m-63.638418 0a63.638418 63.638418 0 1 0 127.276836 0 63.638418 63.638418 0 1 0-127.276836 0Z" fill="#8a8a8a" p-id="13187"></path><path d="M708.700565 419.435028m-63.638418 0a63.638418 63.638418 0 1 0 127.276836 0 63.638418 63.638418 0 1 0-127.276836 0Z" fill="#8a8a8a" p-id="13188"></path><path d="M697.477062 762.79322l39.455819-24.182599z m2.198418 3.239774l37.257401-27.422373z m-2.198418-3.239774l39.455819-24.182599 6.479548 10.587119a23.141243 23.141243 0 1 1-39.455819 24.182599l-6.479548-10.587119m-367.193672 11.281356a23.141243 23.141243 0 1 1-38.414463-25.802486 271.909605 271.909605 0 0 1 445.063954-9.661469l-37.257401 27.422373a225.627119 225.627119 0 0 0-369.39209 7.983729" fill="#8a8a8a" p-id="13189"></path></svg>