<?xml version="1.0" standalone="no"?><!DOCTYPE svg PUBLIC "-//W3C//DTD SVG 1.1//EN" "http://www.w3.org/Graphics/SVG/1.1/DTD/svg11.dtd"><svg t="1510033605793" class="icon" style="" viewBox="0 0 1024 1024" version="1.1" xmlns="http://www.w3.org/2000/svg" p-id="7777" xmlns:xlink="http://www.w3.org/1999/xlink" width="128" height="128"><defs><style type="text/css"></style></defs><path d="M924.890453 409.627307l-252.388693 0c97.778347-362.082987-67.40992-380.586667-67.40992-380.586667-70.034773 0-55.49056 55.504213-60.78464 64.750933 0 177.08032-187.644587 315.835733-187.644587 315.835733l0 502.162773c0 49.55136 67.38944 67.396267 93.81888 67.396267l379.265707 0c35.682987 0 64.750933-93.822293 64.750933-93.822293 93.825707-319.802027 93.825707-414.94528 93.825707-414.94528C988.327253 404.343467 924.890453 409.627307 924.890453 409.627307L924.890453 409.627307zM253.088427 409.791147 101.942613 409.791147c-31.22176 0-31.71328 30.726827-31.71328 30.726827l31.218347 506.456747c0 32.211627 32.208213 32.211627 32.208213 32.211627l130.82624 0c27.252053 0 27.009707-21.312853 27.009707-21.312853l0-509.678933C291.49184 409.296213 253.088427 409.791147 253.088427 409.791147L253.088427 409.791147zM253.088427 409.791147" p-id="7778" fill="#bfbfbf"></path></svg>