<?xml version="1.0" standalone="no"?><!DOCTYPE svg PUBLIC "-//W3C//DTD SVG 1.1//EN" "http://www.w3.org/Graphics/SVG/1.1/DTD/svg11.dtd"><svg t="1506093818700" class="icon" style="" viewBox="0 0 1024 1024" version="1.1" xmlns="http://www.w3.org/2000/svg" p-id="1016" xmlns:xlink="http://www.w3.org/1999/xlink" width="200" height="200"><defs><style type="text/css"></style></defs><path d="M377.859 880.278c-48.675-101.24-22.715-159.24 14.665-213.869 40.94-59.87 51.512-119.09 51.512-119.09s32.207 41.84 19.3 107.29c56.887-63.31 67.637-164.172 59.017-202.779 128.515 89.86 183.445 284.349 109.445 428.509 393.789-222.809 97.945-556.206 46.495-593.758 17.17 37.522 20.405 101.125-14.22 131.987-58.73-222.689-203.92-268.334-203.92-268.334 17.2 114.822-62.23 240.334-138.797 334.159-2.715-45.76-5.547-77.357-29.637-121.19-5.432 83.195-68.95 150.975-86.147 234.287-23.302 112.9 17.465 195.479 172.347 282.789L377.859 880.279z" p-id="1017" fill="#8a8a8a"></path><path d="M516.3776 9.86112c-279.13728 0-505.42592 226.28864-505.42592 505.42592s226.28864 505.4208 505.42592 505.4208c279.1424 0 505.42592-226.2784 505.42592-505.4208S795.52 9.86112 516.3776 9.86112zM516.3776 972.06784c-252.27264 0-456.78592-204.50816-456.78592-456.7808 0-252.27776 204.50816-456.78592 456.78592-456.78592s456.78592 204.50816 456.78592 456.78592C973.16352 767.55968 768.65536 972.06784 516.3776 972.06784z" p-id="1018" fill="#8a8a8a"></path></svg>