<?xml version="1.0" standalone="no"?><!DOCTYPE svg PUBLIC "-//W3C//DTD SVG 1.1//EN" "http://www.w3.org/Graphics/SVG/1.1/DTD/svg11.dtd"><svg t="1508756328031" class="icon" style="" viewBox="0 0 1024 1024" version="1.1" xmlns="http://www.w3.org/2000/svg" p-id="2371" xmlns:xlink="http://www.w3.org/1999/xlink" width="128" height="128"><defs><style type="text/css"></style></defs><path d="M511.708358 64.020082c-247.419066 0-447.996291 200.570061-447.996291 447.989127 0 247.423159 200.577225 447.996291 447.996291 447.996291s447.993221-200.574155 447.993221-447.996291C959.701578 264.590144 759.127424 64.020082 511.708358 64.020082zM678.917614 722.035644c-70.581522-29.014824-87.299275-38.489616-87.299275-38.489616l-0.620124-66.538439c0 0 26.439162-19.913539 34.681894-82.83766 16.500812 4.737908 22.090111-19.204387 22.978341-34.495652 0.982374-14.779611 9.759271-60.848856-10.434653-56.734142 4.133134-30.758538 7.377014-58.559721 5.90243-73.288167-5.046946-51.668777-41.032532-105.621573-131.881656-109.557208-77.238129 3.945869-127.371946 57.925271-132.434242 109.60121-1.452071 14.72026 1.512447 42.499953 5.637394 73.306586-20.178575-4.158716-11.490705 41.984207-10.602476 56.756655 0.971118 15.291265 6.432503 39.315424 22.978341 34.570353 8.213056 62.928215 34.648125 82.998319 34.648125 82.998319l-0.664126 66.881247c0 0-16.721847 10.120498-87.306438 39.132252-63.514569 26.151613-52.125171 10.221806-91.097788 27.452235-58.012252-62.724577-93.481068-146.604986-93.481068-238.781338 0-194.284915 157.499104-351.784018 351.784018-351.784018S863.49033 317.728388 863.49033 512.013303c0 92.164073-35.458583 176.033225-93.457532 238.755756C731.038692 733.311455 742.446509 748.18521 678.917614 722.035644z" p-id="2372" fill="#8a8a8a"></path></svg>
