<?xml version="1.0" standalone="no"?><!DOCTYPE svg PUBLIC "-//W3C//DTD SVG 1.1//EN" "http://www.w3.org/Graphics/SVG/1.1/DTD/svg11.dtd"><svg t="1506010617136" class="icon" style="" viewBox="0 0 1024 1024" version="1.1" xmlns="http://www.w3.org/2000/svg" p-id="7746" xmlns:xlink="http://www.w3.org/1999/xlink" width="200" height="200"><defs><style type="text/css"></style></defs><path d="M604.672 929.536C604.672 929.978182 604.788364 930.397091 604.788364 930.839273 604.788364 982.202182 563.246545 1023.837091 512 1023.837091 460.753455 1023.837091 419.211636 982.202182 419.211636 930.839273 419.211636 930.397091 419.328 929.978182 419.328 929.559273 122.577455 921.390545 46.545455 873.029818 46.545455 814.475636 46.545455 796.113455 54.551273 778.845091 74.030545 763.392 214.318545 607.115636 256 650.402909 256 418.909091 256 264.541091 262.306909 123.066182 448.186182 97.559273 444.485818 89.064727 442.391273 79.709091 442.391273 69.864727 442.391273 31.325091 473.553455 0.093091 512 0.093091 550.446545 0.093091 581.608727 31.325091 581.608727 69.864727 581.608727 79.709091 579.514182 89.064727 575.837091 97.559273 761.693091 123.066182 768 264.541091 768 418.909091 768 651.077818 809.890909 606.789818 951.202909 764.741818 969.681455 779.845818 977.454545 796.648727 977.454545 814.475636 977.454545 873.006545 899.421091 921.320727 604.672 929.536ZM512 977.384727C537.623273 977.384727 558.405818 956.555636 558.405818 930.862545 558.405818 930.722909 558.359273 930.606545 558.359273 930.490182 543.208727 930.676364 528.197818 930.909091 512 930.909091 495.802182 930.909091 480.791273 930.676364 465.640727 930.490182 465.640727 930.606545 465.594182 930.746182 465.594182 930.862545 465.594182 956.555636 486.376727 977.384727 512 977.384727ZM512 46.568727C499.176727 46.568727 488.797091 56.971636 488.797091 69.818182 488.797091 82.664727 499.176727 93.090909 512 93.090909 524.823273 93.090909 535.202909 82.664727 535.202909 69.818182 535.202909 56.971636 524.823273 46.568727 512 46.568727ZM921.739636 800.768C921.739636 800.768 886.295273 760.901818 828.229818 708.026182 748.893091 635.787636 721.454545 601.506909 721.454545 418.909091 721.454545 240.546909 711.726545 139.636364 512 139.636364 312.273455 139.636364 302.545455 240.546909 302.545455 418.909091 302.545455 601.530182 275.083636 635.834182 195.723636 708.096 138.752 759.994182 102.958545 799.860364 102.958545 799.860364 93.090909 807.703273 93.090909 812.264727 93.090909 814.475636 93.090909 817.338182 97.861818 884.340364 512 884.340364 926.138182 884.340364 930.909091 817.338182 930.909091 814.475636 930.909091 812.613818 930.909091 808.261818 921.739636 800.768Z" p-id="7747" fill="#01A982"></path></svg>