<?xml version="1.0" standalone="no"?><!DOCTYPE svg PUBLIC "-//W3C//DTD SVG 1.1//EN" "http://www.w3.org/Graphics/SVG/1.1/DTD/svg11.dtd"><svg t="1506241820367" class="icon" style="" viewBox="0 0 1024 1024" version="1.1" xmlns="http://www.w3.org/2000/svg" p-id="4884" xmlns:xlink="http://www.w3.org/1999/xlink" width="128" height="128"><defs><style type="text/css"></style></defs><path d="M513.706667 16.653653C239.62624 16.653653 16.653653 239.62624 16.653653 513.706667S239.62624 1010.756267 513.706667 1010.756267s497.0496-222.969173 497.0496-497.0496S787.787093 16.653653 513.706667 16.653653zM513.706667 965.567147c-249.152853 0-451.863893-202.707627-451.863893-451.86048 0-249.152853 202.71104-451.863893 451.863893-451.863893 249.152853 0 451.86048 202.71104 451.86048 451.863893C965.567147 762.85952 762.85952 965.567147 513.706667 965.567147zM710.74816 300.192427c-69.0176 0-125.136213 60.392107-125.136213 134.642347 0 12.46208 10.11712 22.592853 22.5792 22.592853s22.5792-10.130773 22.5792-22.592853c0-49.322667 35.887787-89.45664 79.977813-89.45664 44.12416 0 80.01536 40.133973 80.01536 89.45664 0 12.46208 10.113707 22.592853 22.575787 22.592853 12.496213 0 22.613333-10.130773 22.613333-22.592853C835.95264 360.584533 779.769173 300.192427 710.74816 300.192427zM320.453973 345.381547c44.09344 0 79.950507 40.133973 79.950507 89.45664 0 12.46208 10.113707 22.592853 22.5792 22.592853 12.496213 0 22.5792-10.130773 22.5792-22.592853 0-74.25024-56.118613-134.642347-125.108907-134.642347-69.051733 0-125.20448 60.392107-125.20448 134.642347 0 12.46208 10.113707 22.592853 22.5792 22.592853 12.496213 0 22.613333-10.130773 22.613333-22.592853C240.442027 385.51552 276.329813 345.381547 320.453973 345.381547zM755.561813 621.305173c-11.526827-4.7616-24.743253 0.815787-29.47072 12.373333-39.021227 95.638187-122.385067 157.426347-212.38784 157.426347-90.002773 0-173.366613-61.791573-212.41856-157.426347-4.696747-11.557547-17.913173-17.134933-29.467307-12.373333-11.523413 4.70016-17.097387 17.882453-12.36992 29.44 46.004907 112.708267 145.80736 185.51808 254.255787 185.51808 108.448427 0 208.223573-72.809813 254.225067-185.545387C772.6592 639.19104 767.085227 626.005333 755.561813 621.305173z" p-id="4885" fill="#f76a24"></path></svg>